<?xml version="1.0" encoding="utf-8"?>
<!-- Uploaded to: SVG Repo, www.svgrepo.com, Generator: SVG Repo Mixer Tools -->
<svg width="800px" height="800px" viewBox="0 0 1024 1024" fill="#000000" class="icon"  version="1.1" xmlns="http://www.w3.org/2000/svg"><path d="M679.946 636.304a8 8 0 0 1-5.652-13.656L937.368 359.54c-4.312-6.484-6.622-14.102-6.622-22.062s2.308-15.578 6.622-22.062L732.618 110.642c-13.312 8.812-30.812 8.812-44.124 0l-71.042 71.034a7.996 7.996 0 1 1-11.308-11.31l76.118-76.122a8.012 8.012 0 0 1 11.312-0.008c9.376 9.36 24.594 9.36 33.968 0a8.01 8.01 0 0 1 11.312 0.008L953.774 309.2a8 8 0 0 1 0 11.312c-4.532 4.54-7.032 10.562-7.032 16.968s2.5 12.436 7.032 16.968a8 8 0 0 1 0 11.312l-268.172 268.2a7.968 7.968 0 0 1-5.656 2.344z" fill="" /><path d="M679.946 681.538a8 8 0 0 1-5.652-13.656L1004.676 337.48 710.54 43.342l-138.336 138.334a8 8 0 0 1-11.312-11.31l143.992-143.992a8 8 0 0 1 11.312 0l305.45 305.452a7.996 7.996 0 0 1 0 11.31L685.602 679.194a7.976 7.976 0 0 1-5.656 2.344z" fill="" /><path d="M665.778 266.296c-4.422 0-8.078-3.578-8.078-8s3.5-8 7.906-8h0.172c4.406 0 8 3.578 8 8s-3.594 8-8 8zM688.398 243.672c-4.422 0-8.078-3.578-8.078-8 0-4.422 3.5-8 7.906-8h0.172c4.406 0 8 3.578 8 8 0 4.422-3.594 8-8 8zM711.024 221.048c-4.422 0-8.078-3.578-8.078-8 0-4.42 3.5-8 7.906-8h0.172c4.406 0 8 3.578 8 8 0 4.422-3.594 8-8 8zM710.54 469.924a8 8 0 0 1-5.656-13.654l135.774-135.758a8 8 0 1 1 11.312 11.312l-135.774 135.756a7.98 7.98 0 0 1-5.656 2.344zM687.914 424.662a7.976 7.976 0 0 1-5.656-2.344l-32.652-32.654a8 8 0 1 1 11.312-11.312l32.652 32.654a8 8 0 0 1-5.656 13.656zM721.852 380.79a31.78 31.78 0 0 1-22.624-9.374l-22.624-22.624c-12.464-12.476-12.464-32.772 0-45.248 12.094-12.092 33.156-12.092 45.25 0l22.622 22.624c12.468 12.476 12.468 32.772 0 45.248a31.79 31.79 0 0 1-22.624 9.374z m-22.626-70.622a15.912 15.912 0 0 0-11.312 4.688c-6.234 6.234-6.234 16.39 0 22.624l22.624 22.624c6.062 6.046 16.562 6.046 22.624 0 6.234-6.234 6.234-16.39 0-22.624l-22.624-22.624a15.912 15.912 0 0 0-11.312-4.688zM778.426 324.23a31.784 31.784 0 0 1-22.64-9.376l-22.622-22.624a31.788 31.788 0 0 1-9.376-22.632c0-8.546 3.328-16.584 9.376-22.624 12.09-12.068 33.2-12.084 45.262 0.016l22.61 22.616c12.464 12.476 12.464 32.772 0 45.248a31.724 31.724 0 0 1-22.61 9.376z m-22.626-70.62c-4.282 0-8.296 1.664-11.328 4.688s-4.684 7.032-4.684 11.304c0 4.274 1.668 8.296 4.684 11.32l22.624 22.624c6.062 6.054 16.61 6.062 22.61 0.008 6.25-6.242 6.25-16.398 0.016-22.632l-22.624-22.624a15.856 15.856 0 0 0-11.298-4.688z" fill="" /><path d="M676.602 435.99a8 8 0 0 1-5.652-13.656l22.622-22.64a8 8 0 1 1 11.312 11.312l-22.624 22.64a7.984 7.984 0 0 1-5.658 2.344zM601.704 935.974H54.298c-14.968 0-28.874-5.876-39.154-16.546-10.282-10.654-15.64-24.764-15.092-39.716L32.034 255.58c1.094-30.584 27-55.558 57.716-55.558h476.486c30.718 0 56.606 24.974 57.746 55.668l31.954 623.914c0.562 15.062-4.796 29.172-15.078 39.826-10.284 10.67-24.19 16.544-39.154 16.544zM89.75 216.018c-22.218 0-40.936 18.062-41.732 40.256L16.034 880.414c-0.376 10.454 3.39 20.406 10.64 27.922 7.234 7.5 17.044 11.638 27.624 11.638h547.406c10.574 0 20.386-4.138 27.622-11.638 7.25-7.516 11.016-17.468 10.624-28.032L608 256.39c-0.828-22.31-19.562-40.374-41.766-40.374H89.75z" fill="" /><path d="M601.704 983.97H54.298c-14.968 0-28.874-5.874-39.154-16.544-10.282-10.656-15.64-24.766-15.092-39.716 0.156-4.406 3.266-7.796 8.296-7.704a8.022 8.022 0 0 1 7.704 8.296c-0.39 10.562 3.376 20.514 10.624 28.03 7.234 7.5 17.044 11.64 27.624 11.64h547.406c10.574 0 20.386-4.14 27.622-11.64 7.25-7.516 11.016-17.466 10.624-28.03a8.02 8.02 0 0 1 7.704-8.296h0.296a8.008 8.008 0 0 1 8 7.704c0.546 14.952-4.812 29.06-15.094 39.716-10.284 10.672-24.19 16.544-39.154 16.544z" fill="" /><path d="M8.05 936.006c-4.42 0-8-3.578-8-8V882.96a7.994 7.994 0 0 1 8-7.998c4.422 0 8 3.576 8 7.998v45.044a7.996 7.996 0 0 1-8 8.002zM647.95 936.006c-4.422 0-8-3.578-8-8v-44.92c0-4.422 3.578-7.998 8-7.998s8 3.576 8 7.998v44.92c0 4.422-3.578 8-8 8zM425.744 520h-61.746c-13.234 0-23.998-10.766-23.998-24v-47.998c0-13.234 10.764-23.998 23.998-23.998h61.152c13.204 0 24.03 10.742 24.124 23.944l0.344 47.998a23.7 23.7 0 0 1-6.952 16.992 23.682 23.682 0 0 1-16.922 7.062z m-61.746-79.996c-4.406 0-8 3.586-8 8V496c0 4.414 3.592 8 8 8h61.746c2.094 0 4.078-0.828 5.578-2.336s2.312-3.5 2.296-5.608l-0.344-47.998a8.14 8.14 0 0 0-8.124-8.054h-61.152zM554.984 520H489.74c-13.202 0-24.03-10.742-24.124-23.944l-0.344-47.998a23.696 23.696 0 0 1 6.954-16.992 23.674 23.674 0 0 1 16.92-7.062h63.496c13.124 0 24.094 10.664 24.468 23.772l1.406 47.99a23.506 23.506 0 0 1-6.64 17.116 23.406 23.406 0 0 1-16.892 7.118z m-65.838-79.996a7.826 7.826 0 0 0-5.578 2.336 7.814 7.814 0 0 0-2.296 5.61l0.344 47.998a8.14 8.14 0 0 0 8.124 8.054h65.246a7.452 7.452 0 0 0 5.406-2.274 7.45 7.45 0 0 0 2.124-5.5l-1.406-47.99c-0.124-4.468-4-8.234-8.468-8.234h-63.496zM175.258 520H110.012c-6.484 0-12.484-2.562-16.858-7.21-4.374-4.64-6.578-10.758-6.202-17.226l2.796-48.052c0.766-12.968 11.936-23.506 24.92-23.506h63.496c6.454 0 12.452 2.54 16.89 7.148 4.436 4.61 6.75 10.686 6.514 17.132l-1.734 48.02C199.334 509.376 188.32 520 175.258 520z m-60.59-79.996c-4.578 0-8.688 3.868-8.954 8.438l-2.796 48.052c-0.11 2.032 0.546 3.914 1.876 5.32 1.328 1.414 3.188 2.188 5.218 2.188h65.246c4.484 0 8.422-3.79 8.578-8.28l1.734-48.02c0.078-2.07-0.64-4-2.032-5.446a7.396 7.396 0 0 0-5.376-2.25H114.668zM300 520h-60.746c-6.454 0-12.468-2.54-16.906-7.148-4.436-4.61-6.75-10.696-6.514-17.132l1.75-48.02c0.5-13.07 11.514-23.694 24.576-23.694H300c13.234 0 24 10.764 24 23.998V496c0 13.234-10.764 24-24 24z m-57.838-79.996c-4.484 0-8.422 3.79-8.578 8.282l-1.75 48.02c-0.078 2.07 0.64 4 2.032 5.444a7.404 7.404 0 0 0 5.39 2.25H300c4.344 0 8-3.664 8-8v-47.998c0-4.336-3.656-8-8-8h-57.838zM167.758 743.986H98.014c-6.484 0-12.484-2.562-16.858-7.204-4.376-4.656-6.578-10.766-6.204-17.232l2.796-48.06c0.766-12.952 11.938-23.498 24.92-23.498h67.996c6.454 0 12.454 2.532 16.89 7.14 4.436 4.61 6.75 10.702 6.514 17.138l-1.734 48.014c-0.498 13.078-11.512 23.702-24.576 23.702z m-65.09-79.996c-4.578 0-8.686 3.86-8.952 8.438l-2.796 48.06c-0.11 2.016 0.546 3.904 1.874 5.31 1.328 1.406 3.188 2.188 5.218 2.188h69.746c4.484 0 8.422-3.796 8.578-8.28l1.734-48.014c0.078-2.078-0.64-4-2.032-5.454a7.396 7.396 0 0 0-5.376-2.25H102.668zM427.244 743.986h-63.246c-13.234 0-23.998-10.766-23.998-23.998v-47.998c0-13.232 10.764-23.998 23.998-23.998h62.652c13.204 0 24.03 10.734 24.124 23.936l0.344 47.998a23.71 23.71 0 0 1-6.954 16.998 23.708 23.708 0 0 1-16.92 7.062z m-63.246-79.996c-4.406 0-8 3.594-8 8v47.998a8.014 8.014 0 0 0 8 7.998h63.246a7.8 7.8 0 0 0 5.578-2.344 7.788 7.788 0 0 0 2.296-5.592l-0.344-47.998a8.136 8.136 0 0 0-8.124-8.062h-62.652zM300 743.986h-68.246c-6.452 0-12.466-2.546-16.904-7.156-4.438-4.594-6.75-10.688-6.516-17.124l1.75-48.03c0.5-13.06 11.514-23.686 24.576-23.686H300c13.234 0 24 10.766 24 23.998v47.998c0 13.234-10.764 24-24 24z m-65.338-79.996c-4.484 0-8.42 3.796-8.578 8.282l-1.75 48.03a7.36 7.36 0 0 0 2.032 5.436 7.404 7.404 0 0 0 5.39 2.25H300c4.344 0 8-3.656 8-7.998v-47.998c0-4.344-3.656-8-8-8h-65.338zM91.952 855.932c-6.468 0-12.438-2.546-16.812-7.186-4.376-4.64-6.562-10.75-6.188-17.204l2.796-48.058c0.766-12.954 11.938-23.5 24.92-23.5h70.246c6.454 0 12.454 2.532 16.89 7.14 4.436 4.61 6.75 10.704 6.514 17.14l-1.718 47.59c-0.5 13.062-11.514 23.716-24.562 23.764l-71.996 0.312-0.09 0.002z m4.718-79.948c-4.578 0-8.686 3.86-8.952 8.438L84.92 832.48c-0.11 2.016 0.546 3.89 1.86 5.282 1.312 1.406 3.156 2.172 5.172 2.172v8l0.032-8 71.996-0.312c4.514-0.016 8.468-3.844 8.624-8.344l1.718-47.59c0.078-2.078-0.64-4-2.032-5.454a7.396 7.396 0 0 0-5.376-2.25H96.67zM563.984 855.978l-71.996-0.062c-13.218-0.016-24.03-10.764-24.124-23.952l-1.844-271.922a23.7 23.7 0 0 1 6.954-16.982 23.708 23.708 0 0 1 16.92-7.062h65.746c13.124 0 24.078 10.672 24.438 23.78l7.468 271.984a23.452 23.452 0 0 1-6.672 17.11 23.426 23.426 0 0 1-16.89 7.106z m-74.088-303.98a7.8 7.8 0 0 0-5.578 2.344 7.788 7.788 0 0 0-2.296 5.592l1.844 271.922c0.032 4.438 3.686 8.046 8.14 8.062l71.98 0.062c2.062 0 4-0.812 5.422-2.282a7.466 7.466 0 0 0 2.14-5.5l-7.468-271.984c-0.11-4.452-3.984-8.216-8.438-8.216h-65.746zM427.994 855.978h-63.996c-13.234 0-23.998-10.764-23.998-23.998v-47.996c0-13.234 10.764-24 23.998-24H427.4c13.204 0 24.03 10.734 24.124 23.938l0.344 47.996a23.71 23.71 0 0 1-6.954 17 23.714 23.714 0 0 1-16.92 7.06z m-63.996-79.994c-4.406 0-8 3.594-8 8v47.996c0 4.406 3.592 8 8 8h63.996a7.8 7.8 0 0 0 5.578-2.344 7.792 7.792 0 0 0 2.296-5.594l-0.344-47.996a8.136 8.136 0 0 0-8.124-8.062h-63.402zM300 855.978h-71.996c-6.454 0-12.468-2.546-16.906-7.154-4.438-4.594-6.75-10.688-6.516-17.124l1.75-48.028c0.5-13.062 11.516-23.688 24.576-23.688H300c13.234 0 24 10.766 24 24v47.996c0 13.234-10.764 23.998-24 23.998z m-69.088-79.994c-4.484 0-8.42 3.796-8.578 8.282l-1.75 48.028a7.364 7.364 0 0 0 2.032 5.438 7.404 7.404 0 0 0 5.39 2.25H300c4.344 0 8-3.656 8-8v-47.996c0-4.344-3.656-8-8-8h-69.088zM426.494 631.992h-62.496c-13.234 0-23.998-10.766-23.998-23.998v-47.998c0-13.232 10.764-23.998 23.998-23.998h61.902c13.204 0 24.03 10.734 24.124 23.936l0.344 47.998a23.712 23.712 0 0 1-6.952 16.998 23.716 23.716 0 0 1-16.922 7.062z m-62.496-79.994c-4.406 0-8 3.594-8 7.998v47.998c0 4.406 3.592 8 8 8h62.496a7.8 7.8 0 0 0 5.578-2.344 7.792 7.792 0 0 0 2.296-5.594l-0.344-47.998a8.134 8.134 0 0 0-8.124-8.06h-61.902z" fill="" /><path d="M171.508 631.992H104.012c-6.484 0-12.482-2.562-16.858-7.204-4.376-4.656-6.578-10.764-6.204-17.232l2.796-48.06c0.766-12.952 11.936-23.498 24.92-23.498h65.746c6.454 0 12.454 2.532 16.89 7.14 4.438 4.61 6.75 10.704 6.514 17.138l-1.734 48.014c-0.496 13.078-11.51 23.702-24.574 23.702z m-62.84-79.994c-4.578 0-8.686 3.86-8.952 8.436l-2.796 48.06c-0.11 2.016 0.546 3.906 1.876 5.312 1.328 1.406 3.186 2.188 5.218 2.188h67.496c4.484 0 8.422-3.796 8.578-8.282l1.734-48.014c0.078-2.078-0.64-3.998-2.032-5.452a7.396 7.396 0 0 0-5.376-2.25H108.668z" fill="" /><path d="M300 631.992h-64.496c-6.454 0-12.468-2.546-16.904-7.156-4.438-4.594-6.75-10.686-6.516-17.124l1.75-48.03c0.5-13.06 11.514-23.686 24.576-23.686H300c13.234 0 24 10.766 24 23.998v47.998c0 13.234-10.764 24-24 24z m-61.588-79.994c-4.484 0-8.422 3.796-8.578 8.28l-1.75 48.03a7.364 7.364 0 0 0 2.032 5.438 7.404 7.404 0 0 0 5.39 2.25H300c4.344 0 8-3.656 8-8v-47.998c0-4.342-3.656-7.998-8-7.998h-61.588z" fill="" /><path d="M563.766 380.008H94.17a7.98 7.98 0 0 1-5.734-2.43 7.984 7.984 0 0 1-2.266-5.812l3-99.994a8.006 8.006 0 0 1 8-7.756H561.14a7.994 7.994 0 0 1 8 7.788l2.624 99.994a8.08 8.08 0 0 1-2.266 5.796 8.05 8.05 0 0 1-5.732 2.414z m-461.348-16h453.128l-2.204-83.996H104.934l-2.516 83.996z" fill="" /><path d="M927.964 711.988c-39.704 0-71.996-32.294-71.996-71.996s32.292-71.996 71.996-71.996c39.7 0 71.992 32.294 71.992 71.996s-32.292 71.996-71.992 71.996z m0-127.992c-30.876 0-56 25.124-56 55.996s25.124 55.996 56 55.996c30.872 0 55.996-25.124 55.996-55.996s-25.124-55.996-55.996-55.996z" fill="" /><path d="M927.964 743.986c-39.704 0-71.996-32.294-71.996-71.996 0-4.422 3.578-8 8-8a7.994 7.994 0 0 1 7.996 8c0 30.874 25.124 55.996 56 55.996 30.872 0 55.996-25.124 55.996-55.996 0-4.422 3.578-8 8-8a7.994 7.994 0 0 1 7.996 8c0.002 39.702-32.292 71.996-71.992 71.996z" fill="" /><path d="M863.968 679.99c-4.422 0-8-3.578-8-8v-31.998c0-4.422 3.578-8 8-8a7.994 7.994 0 0 1 7.996 8v31.998c0 4.422-3.578 8-7.996 8z" fill="" /><path d="M991.96 679.99c-4.422 0-8-3.578-8-8v-31.998c0-4.422 3.578-8 8-8a7.994 7.994 0 0 1 7.996 8v31.998a7.994 7.994 0 0 1-7.996 8z" fill="" /><path d="M927.964 663.99c-4.422 0-8-3.578-8-7.998v-32a7.994 7.994 0 0 1 8-7.998 7.994 7.994 0 0 1 7.996 7.998v32a7.994 7.994 0 0 1-7.996 7.998z" fill="" /><path d="M831.968 967.972c-57.34 0-103.992-46.654-103.992-103.994s46.652-103.994 103.992-103.994 103.992 46.654 103.992 103.994-46.652 103.994-103.992 103.994z m0-191.988c-48.512 0-87.996 39.48-87.996 87.994s39.484 87.994 87.996 87.994 87.996-39.48 87.996-87.994-39.484-87.994-87.996-87.994z" fill="" /><path d="M831.968 999.97c-57.34 0-103.992-46.654-103.992-103.994 0-4.422 3.578-8 8-8a7.994 7.994 0 0 1 7.996 8c0 48.512 39.484 87.994 87.996 87.994s87.996-39.482 87.996-87.994c0-4.422 3.578-8 8-8a7.994 7.994 0 0 1 7.996 8c0 57.34-46.652 103.994-103.992 103.994z" fill="" /><path d="M831.968 903.976c-4.422 0-8-3.578-8-8V831.98c0-4.422 3.578-8 8-8s8 3.578 8 8v63.996c0 4.422-3.578 8-8 8z" fill="" /><path d="M927.964 903.976c-4.422 0-8-3.578-8-8v-31.998c0-4.422 3.578-8 8-8a7.994 7.994 0 0 1 7.996 8v31.998c0 4.422-3.578 8-7.996 8z" fill="" /><path d="M735.976 903.976c-4.422 0-8-3.578-8-8v-31.998c0-4.422 3.578-8 8-8a7.994 7.994 0 0 1 7.996 8v31.998c0 4.422-3.578 8-7.996 8z" fill="" /></svg>