<?xml version="1.0" encoding="iso-8859-1"?>
<!-- Uploaded to: SVG Repo, www.svgrepo.com, Generator: SVG Repo Mixer Tools -->
<svg fill="#000000" height="800px" width="800px" version="1.1" id="Layer_1" xmlns="http://www.w3.org/2000/svg" xmlns:xlink="http://www.w3.org/1999/xlink" 
	 viewBox="0 0 512.003 512.003" xml:space="preserve">
<g>
	<g>
		<path d="M487.181,290.968c-16.006-16.006-37.289-24.821-59.924-24.82h-79.579c-5.596,0-10.147-4.551-10.147-10.147
			c0-5.596,4.551-10.147,10.147-10.147h79.584c46.725,0,84.739-38.014,84.739-84.739c0-44.03-33.754-80.324-76.744-84.364
			c-1.821-19.616-10.341-37.817-24.445-51.923c-3.819-3.819-10.01-3.82-13.827-0.001c-3.82,3.819-3.82,10.009-0.001,13.828
			c12.308,12.311,19.088,28.679,19.088,46.086v1.415c0,5.4,4.377,9.778,9.778,9.778h1.415c35.942,0,65.183,29.241,65.183,65.183
			s-29.241,65.183-65.183,65.183H347.68c-16.379,0-29.702,13.324-29.702,29.702s13.325,29.702,29.702,29.702h79.578
			c17.412-0.001,33.782,6.778,46.094,19.09c12.312,12.311,19.094,28.682,19.094,46.093c0,35.942-29.241,65.183-65.183,65.183h-1.415
			c-5.401,0-9.778,4.378-9.778,9.778v1.415c0,35.942-29.241,65.183-65.183,65.183c-17.411,0-33.782-6.781-46.093-19.093
			c-12.311-12.312-19.092-28.682-19.09-46.094V347.68c0-16.378-13.325-29.702-29.702-29.702S226.3,331.302,226.3,347.68v79.584
			c0,5.4,4.377,9.778,9.778,9.778s9.778-4.378,9.778-9.778V347.68c0-5.595,4.551-10.147,10.147-10.147s10.147,4.551,10.147,10.147
			v79.579c-0.001,22.635,8.813,43.917,24.817,59.922c16.004,16.006,37.286,24.821,59.921,24.821
			c44.029,0,80.324-33.757,84.366-76.748c42.991-4.04,76.748-40.336,76.748-84.366C512.002,328.254,503.186,306.973,487.181,290.968
			z"/>
	</g>
</g>
<g>
	<g>
		<path d="M367.952,1.722C362.37,0.58,356.628,0,350.887,0c-46.725,0-84.739,38.014-84.739,84.739v79.584
			c0,5.596-4.551,10.147-10.147,10.147s-10.147-4.551-10.147-10.147V84.739C245.853,38.014,207.84,0,161.115,0
			C117.086,0,80.79,33.758,76.749,76.75c-42.99,4.04-76.748,40.334-76.748,84.364c0,46.725,38.014,84.739,84.739,84.739h79.584
			c5.594,0,10.146,4.551,10.146,10.147c0,5.596-4.551,10.147-10.146,10.147H84.739c-46.725,0.001-84.739,38.014-84.739,84.74
			c0,44.03,33.758,80.324,76.748,84.365c4.042,42.991,40.336,76.748,84.366,76.748c28.194,0,54.459-13.964,70.261-37.354
			c3.022-4.474,1.846-10.552-2.63-13.576c-4.476-3.022-10.552-1.846-13.576,2.63c-12.158,17.999-32.367,28.744-54.056,28.744
			c-35.942,0-65.183-29.241-65.183-65.183v-1.414c0-5.4-4.377-9.778-9.778-9.778h-1.415c-35.942,0.001-65.183-29.241-65.183-65.183
			s29.241-65.183,65.183-65.183h79.584c16.379,0,29.701-13.324,29.701-29.702c0-16.378-13.324-29.702-29.701-29.702H84.739
			c-35.942,0-65.183-29.241-65.183-65.183s29.241-65.183,65.183-65.183h1.414c5.401,0,9.778-4.378,9.778-9.778v-1.414
			c0-35.942,29.241-65.183,65.183-65.183s65.183,29.241,65.183,65.183v79.584c0,16.379,13.325,29.702,29.702,29.702
			c16.377,0,29.702-13.324,29.702-29.702V84.739c0-35.942,29.241-65.183,65.183-65.183c4.427,0,8.851,0.446,13.148,1.325
			c5.291,1.083,10.457-2.33,11.539-7.619C376.655,7.971,373.244,2.804,367.952,1.722z"/>
	</g>
</g>
<g>
	<g>
		<path d="M387.584,374.983L282.66,269.593c-3.812-3.828-10.002-3.841-13.828-0.03c-3.825,3.809-3.839,10.001-0.03,13.827
			L373.725,388.78c1.911,1.919,4.421,2.879,6.929,2.879c2.495,0,4.991-0.949,6.899-2.849
			C391.38,385,391.393,378.809,387.584,374.983z"/>
	</g>
</g>
<g>
	<g>
		<path d="M239.941,226.724L138.272,124.633c-3.812-3.826-10.003-3.839-13.827-0.029c-3.828,3.811-3.839,10.001-0.029,13.827
			l101.669,102.091c1.911,1.919,4.42,2.879,6.928,2.879c2.495,0,4.992-0.949,6.899-2.85
			C243.74,236.741,243.752,230.55,239.941,226.724z"/>
	</g>
</g>
<g>
	<g>
		<path d="M388.102,125.154c-3.812-3.826-10.003-3.839-13.827-0.029l-30.41,30.284c-3.828,3.811-3.839,10.001-0.029,13.827
			c1.911,1.919,4.42,2.879,6.928,2.879c2.495,0,4.992-0.949,6.899-2.85l30.41-30.284C391.901,135.17,391.913,128.98,388.102,125.154
			z"/>
	</g>
</g>
<g>
	<g>
		<path d="M330.263,182.752c-3.812-3.826-10.003-3.839-13.827-0.029L215.697,283.045c-3.828,3.811-3.839,10.001-0.029,13.827
			c1.911,1.919,4.42,2.879,6.928,2.879c2.495,0,4.992-0.949,6.899-2.85l100.739-100.322
			C334.061,192.769,334.074,186.578,330.263,182.752z"/>
	</g>
</g>
<g>
	<g>
		<path d="M204.725,307.801c-3.812-3.828-10.003-3.841-13.827-0.031l-66.969,66.663c-3.828,3.809-3.841,10.001-0.031,13.827
			c1.911,1.919,4.421,2.88,6.929,2.88c2.495,0,4.991-0.949,6.898-2.849l66.969-66.663
			C208.522,317.819,208.535,311.627,204.725,307.801z"/>
	</g>
</g>
</svg>