<?xml version="1.0" standalone="no"?>
<!DOCTYPE svg PUBLIC "-//W3C//DTD SVG 20010904//EN"
 "http://www.w3.org/TR/2001/REC-SVG-20010904/DTD/svg10.dtd">
<svg version="1.0" xmlns="http://www.w3.org/2000/svg"
 width="1280.000000pt" height="1201.000000pt" viewBox="0 0 1280.000000 1201.000000"
 preserveAspectRatio="xMidYMid meet">
<g transform="translate(0.000000,1201.000000) scale(0.100000,-0.100000)"
fill="#000000" stroke="none">
<path d="M8697 12000 c-782 -76 -1383 -440 -1786 -1082 -165 -262 -319 -641
-372 -917 -11 -59 -13 -62 -27 -45 -22 30 -51 101 -69 171 -8 35 -19 61 -23
56 -16 -16 -70 -186 -92 -286 -20 -89 -22 -130 -22 -327 1 -257 9 -313 94
-671 53 -219 74 -379 51 -393 -6 -4 -11 -1 -11 8 0 8 -10 41 -21 72 -25 65
-80 131 -126 151 -41 17 -87 17 -80 1 36 -96 65 -264 77 -445 19 -282 -21
-594 -88 -681 l-18 -23 -477 -4 c-385 -4 -491 -2 -551 10 -90 17 -166 48 -197
81 l-22 24 20 23 c31 33 53 82 53 118 0 28 -2 31 -22 24 -100 -31 -128 -36
-180 -31 -71 7 -117 26 -180 73 -54 41 -59 53 -24 53 29 0 72 33 91 70 8 16
18 54 21 85 6 47 5 57 -7 52 -8 -3 -45 -16 -82 -28 -125 -39 -260 -16 -366 65
l-35 26 76 0 c118 0 206 42 267 127 27 36 57 110 49 118 -2 2 -26 -2 -53 -10
-104 -32 -201 -15 -385 67 -63 28 -144 61 -180 73 l-64 22 36 6 c53 8 137 52
181 95 50 48 77 101 84 165 l6 52 -29 -27 c-85 -80 -223 -77 -404 8 -83 39
-180 95 -180 104 0 4 22 12 50 19 59 15 123 59 150 104 11 18 20 35 20 40 0 4
-30 7 -67 7 -108 0 -196 30 -303 103 -71 49 -132 109 -299 297 -196 221 -303
328 -428 427 -175 140 -522 346 -773 459 -136 62 -328 128 -403 139 -26 4 -47
11 -47 15 0 5 35 16 78 25 179 38 251 59 319 91 85 40 125 83 121 128 -3 31
-3 31 -70 34 -95 4 -95 17 0 107 122 116 164 216 166 395 2 160 -30 181 -96
64 -95 -170 -165 -240 -247 -251 -37 -5 -41 -3 -51 21 -5 15 -10 98 -10 185 0
211 -29 380 -85 492 -31 61 -50 76 -72 58 -37 -31 -53 -104 -78 -354 -27 -264
-51 -359 -100 -391 -56 -37 -83 18 -135 277 -45 223 -71 302 -112 332 -35 26
-55 17 -79 -37 -29 -67 -46 -172 -69 -431 -20 -219 -46 -300 -91 -288 -39 10
-105 91 -174 212 -67 118 -116 178 -136 165 -36 -22 -68 -182 -70 -348 -2
-147 -7 -171 -39 -171 -20 0 -35 15 -77 79 -63 95 -91 126 -108 120 -37 -15
-45 -121 -20 -263 15 -86 12 -112 -7 -76 -26 45 -91 105 -115 105 -14 0 -23
-3 -21 -7 1 -5 18 -37 36 -73 19 -38 35 -88 38 -120 l7 -55 -39 37 c-22 20
-51 40 -66 43 -42 11 -45 -16 -8 -76 55 -90 85 -190 64 -212 -4 -4 -23 6 -43
22 -20 15 -46 33 -58 40 -27 14 -83 15 -83 1 0 -6 14 -35 30 -64 41 -72 49
-102 60 -221 9 -105 29 -176 58 -208 26 -30 112 -67 157 -67 l40 0 -35 -27
c-69 -52 -168 -162 -195 -216 -16 -34 -27 -75 -28 -103 -2 -44 0 -49 28 -63
40 -19 132 -4 289 51 106 36 127 40 184 35 96 -7 107 -23 107 -140 -1 -113
-14 -143 -116 -254 -238 -263 -260 -449 -75 -620 80 -74 152 -107 231 -107
109 0 196 66 260 197 l35 72 0 -69 c0 -148 -66 -300 -247 -567 -282 -419 -328
-491 -393 -624 -121 -247 -153 -387 -152 -685 0 -184 10 -294 42 -448 25 -120
35 -139 48 -92 6 22 11 29 14 20 3 -8 24 -74 47 -146 48 -148 138 -342 227
-484 l59 -95 5 40 5 40 29 -50 c91 -157 464 -724 566 -860 76 -101 303 -357
402 -451 167 -161 319 -268 523 -372 88 -45 161 -94 272 -181 84 -65 212 -159
285 -209 135 -91 397 -247 403 -240 2 2 -55 81 -126 177 -72 95 -129 175 -126
177 9 9 183 -134 248 -203 37 -39 103 -125 148 -191 139 -205 283 -325 525
-437 l108 -50 -6 -70 c-7 -81 -51 -415 -102 -765 -81 -568 -118 -707 -212
-792 -50 -45 -113 -65 -232 -73 -375 -25 -523 -54 -622 -121 -38 -25 -68 -49
-68 -54 0 -5 16 -6 35 -3 26 4 41 1 55 -12 17 -15 32 -17 117 -11 211 14 496
19 489 8 -3 -5 -79 -49 -168 -97 -213 -115 -258 -149 -295 -222 -16 -32 -37
-70 -46 -84 -19 -28 -39 -89 -30 -89 3 0 18 11 35 25 25 21 40 25 101 25 40 1
89 7 110 14 45 16 198 101 436 243 96 57 185 103 197 103 12 0 32 -9 45 -19
23 -18 24 -26 30 -193 5 -151 17 -241 36 -272 3 -5 15 9 26 30 11 22 27 55 37
74 10 19 26 76 35 125 9 50 32 137 50 195 19 58 43 143 55 190 12 46 26 92 31
102 14 26 41 22 85 -13 52 -42 132 -79 170 -79 17 0 54 7 83 16 28 8 61 12 71
9 11 -4 20 -3 20 2 -1 24 -44 56 -118 87 -152 63 -224 119 -297 229 -29 44
-39 71 -47 129 -7 49 -7 81 0 99 l11 27 168 7 c171 7 214 17 227 51 9 24 -19
61 -51 68 -15 3 -77 13 -138 22 -121 17 -151 30 -162 71 -7 29 37 454 62 603
27 155 99 430 113 430 4 0 15 -20 25 -44 10 -25 38 -63 62 -85 119 -110 311
-157 697 -170 278 -10 268 -5 268 -139 0 -109 -24 -625 -40 -865 -19 -272 -56
-374 -185 -502 -121 -122 -226 -172 -545 -260 -98 -27 -149 -53 -187 -93 -12
-13 -37 -32 -55 -41 -46 -23 -46 -37 2 -33 27 3 44 -1 56 -13 20 -20 41 -17
234 30 149 36 288 60 298 51 3 -4 -3 -13 -14 -21 -36 -27 -318 -147 -448 -190
-136 -46 -198 -81 -231 -132 -11 -18 -32 -37 -47 -43 -14 -6 -36 -23 -49 -36
l-23 -24 33 11 c24 8 52 8 111 -1 61 -10 94 -10 147 -1 100 18 348 120 602
248 250 126 282 137 314 104 25 -25 27 -70 12 -294 -6 -98 -5 -133 5 -152 7
-13 10 -33 7 -45 -5 -21 -5 -21 18 2 13 13 38 34 55 47 46 35 57 70 79 253 19
150 27 256 50 615 6 99 13 140 26 159 l17 27 170 -7 c122 -4 174 -3 184 5 15
12 18 46 8 73 -7 17 -130 59 -229 77 -71 13 -117 39 -133 74 -16 36 -15 273 3
645 17 343 43 721 50 728 3 3 24 -1 47 -8 64 -19 238 -16 277 5 18 9 31 22 28
28 -2 7 -41 33 -88 58 -46 26 -106 68 -134 95 l-50 49 70 2 c136 5 355 24 385
34 18 7 30 18 30 29 0 13 -16 21 -67 34 -93 23 -180 67 -228 115 -47 49 -51
49 141 16 149 -26 288 -33 299 -15 3 5 -23 51 -59 101 -62 86 -97 161 -83 176
4 3 52 -15 107 -42 104 -50 186 -68 200 -45 12 19 -7 65 -68 163 -46 73 -57
103 -73 180 -45 227 -36 303 31 249 18 -15 24 -33 31 -102 11 -110 39 -128 79
-50 19 38 49 183 51 244 0 26 2 28 9 11 5 -11 16 -45 24 -76 9 -31 23 -62 32
-70 14 -11 19 -10 34 9 31 38 55 157 55 275 0 100 1 106 15 85 8 -12 31 -40
49 -61 32 -36 36 -37 48 -21 9 13 13 63 14 178 0 89 4 170 9 181 7 18 9 18 20
-10 45 -119 66 -167 75 -169 21 -3 73 121 85 206 25 177 -35 457 -168 786 -12
28 -18 52 -13 52 5 0 30 -15 57 -32 128 -86 227 -279 355 -688 55 -177 60
-182 99 -99 17 36 34 92 38 125 l8 59 13 -50 c15 -60 21 -52 47 60 15 63 19
119 19 265 -1 168 -3 196 -29 300 -35 143 -47 307 -23 316 43 16 96 -57 183
-248 60 -133 102 -201 125 -206 10 -2 23 14 37 45 40 89 47 132 46 303 0 169
-14 286 -55 459 -10 46 -18 86 -15 88 2 2 23 -11 47 -30 63 -47 145 -167 249
-364 103 -194 135 -240 156 -222 23 19 26 70 10 178 -9 57 -15 106 -13 107 1
2 15 -21 30 -50 38 -73 80 -121 97 -111 9 6 11 29 7 94 -3 47 -9 97 -13 111
-6 19 5 11 45 -32 29 -32 59 -58 67 -58 7 0 18 19 25 43 24 90 -26 315 -98
434 -18 30 -33 58 -33 61 0 3 16 -10 36 -29 84 -80 169 -239 264 -494 56 -149
93 -229 110 -240 38 -24 88 111 145 390 20 99 40 189 44 200 6 14 14 -15 27
-95 26 -158 26 -486 1 -615 -36 -182 -97 -346 -196 -524 -17 -30 -29 -57 -26
-59 9 -10 136 91 193 153 91 99 168 262 201 420 21 104 24 134 30 285 l6 155
28 -83 c37 -113 61 -257 97 -581 16 -151 31 -276 34 -278 9 -9 54 230 81 437
22 164 30 480 16 625 -33 335 -126 603 -273 786 -26 32 -44 59 -40 59 5 0 40
-22 78 -49 159 -112 273 -276 349 -504 60 -180 87 -349 105 -642 12 -199 19
-265 29 -265 8 0 50 132 75 235 33 138 41 215 41 400 0 162 -4 206 -23 294
-62 275 -184 507 -370 703 -86 90 -86 91 -42 68 264 -134 449 -410 524 -780
27 -135 38 -252 39 -427 1 -94 5 -166 9 -158 34 60 78 366 78 541 0 486 -185
1028 -470 1375 l-35 43 35 -20 c56 -31 204 -183 253 -259 134 -209 251 -532
288 -795 l13 -92 23 26 c12 15 30 52 39 83 22 76 15 320 -15 487 -12 66 -19
121 -17 123 9 10 87 -147 115 -232 37 -109 68 -261 77 -372 4 -46 10 -83 14
-83 14 0 30 88 30 161 0 99 -25 259 -66 418 -19 73 -34 136 -34 138 0 12 39
-45 62 -92 93 -185 146 -502 171 -1025 2 -52 11 -82 45 -152 130 -269 363
-321 610 -136 30 22 52 42 50 44 -3 2 -22 -5 -44 -15 -149 -70 -312 -44 -416
67 -97 104 -116 315 -64 728 68 542 50 963 -59 1389 -99 388 -246 693 -487
1013 -55 73 -98 136 -95 139 9 9 134 -97 241 -203 367 -365 607 -853 725
-1474 29 -153 48 -302 76 -595 24 -250 39 -336 55 -318 11 12 47 273 61 438
15 181 6 610 -16 765 -72 515 -247 953 -538 1350 -88 120 -147 189 -319 371
-76 80 -138 149 -138 153 0 20 171 -24 254 -66 223 -112 491 -418 671 -766 20
-40 39 -71 41 -69 6 6 -53 227 -86 322 -45 131 -160 357 -234 459 -215 299
-457 477 -921 679 -93 41 -201 90 -240 110 -83 43 -71 46 94 21 314 -46 583
-133 711 -229 34 -25 35 -25 38 -5 5 31 -17 90 -52 139 -25 34 -172 163 -362
317 -17 14 -12 15 67 10 118 -7 196 -28 314 -86 172 -85 321 -222 441 -406 56
-86 124 -219 124 -243 0 -8 3 -12 6 -9 3 3 10 53 15 110 20 210 -22 365 -154
561 -52 79 -24 63 92 -51 394 -388 758 -1276 927 -2262 l8 -45 7 40 c13 67 10
340 -6 517 -53 597 -202 1153 -434 1610 -149 296 -301 509 -510 719 -149 148
-287 257 -447 351 -57 34 -103 62 -102 64 2 1 44 -2 93 -7 460 -50 939 -264
1448 -646 180 -136 361 -296 596 -528 l234 -230 -38 71 c-161 302 -572 723
-983 1008 -683 472 -1460 750 -2352 841 -182 19 -597 27 -723 15z"/>
</g>
</svg>
