<?xml version="1.0" encoding="iso-8859-1"?>
<!-- Uploaded to: SVG Repo, www.svgrepo.com, Generator: SVG Repo Mixer Tools -->
<svg fill="#000000" height="800px" width="800px" version="1.1" id="Layer_1" xmlns="http://www.w3.org/2000/svg" xmlns:xlink="http://www.w3.org/1999/xlink" 
	 viewBox="0 0 512 512" xml:space="preserve">
<g>
	<g>
		<path d="M469.779,179.574h-51.841V93.528c0-13.851-11.268-25.119-25.119-25.119h-9.086V8.017c0-4.427-3.588-8.017-8.017-8.017
			h-51.307c-4.428,0-8.017,3.589-8.017,8.017c0,4.427,3.588,8.017,8.017,8.017h43.29v163.541H144.301V16.033h137.353
			c4.428,0,8.017-3.589,8.017-8.017c0-4.427-3.588-8.017-8.017-8.017h-145.37c-4.428,0-8.017,3.589-8.017,8.017v60.392h-9.086
			c-13.851,0-25.119,11.268-25.119,25.119v86.046H42.221C18.941,179.574,0,198.515,0,221.795v25.653
			c0,4.427,3.588,8.017,8.017,8.017c4.428,0,8.017-3.589,8.017-8.017v-25.653c0-14.44,11.747-26.188,26.188-26.188h427.557
			c14.441,0,26.188,11.748,26.188,26.188v94.953h-43.29c-4.428,0-8.017,3.589-8.017,8.017s3.588,8.017,8.017,8.017h43.29v94.241
			c0,14.44-11.747,26.188-26.188,26.188h-51.841v-60.393c0-4.427-3.588-8.017-8.017-8.017H102.079c-4.428,0-8.017,3.589-8.017,8.017
			v60.393H42.221c-14.441,0-26.188-11.748-26.188-26.188v-94.241h393.887c4.428,0,8.017-3.589,8.017-8.017s-3.588-8.017-8.017-8.017
			H16.033v-26.544c0-4.427-3.588-8.017-8.017-8.017c-4.428,0-8.017,3.589-8.017,8.017v136.818c0,23.281,18.941,42.221,42.221,42.221
			h86.046v34.739c0,4.427,3.588,8.017,8.017,8.017h239.432c4.428,0,8.017-3.589,8.017-8.017v-34.739h86.046
			c23.281,0,42.221-18.941,42.221-42.221V221.795C512,198.515,493.059,179.574,469.779,179.574z M128.267,179.574h-18.171V93.528
			c0-5.01,4.076-9.086,9.086-9.086h9.086V179.574z M401.904,179.574h-18.171V84.443h9.086c5.01,0,9.086,4.076,9.086,9.086V179.574z
			 M128.267,453.211h-18.171v-52.376h18.171V453.211z M367.699,495.967H144.301v-95.132h223.399V495.967z M401.904,453.211h-18.171
			v-52.376h18.171V453.211z"/>
	</g>
</g>
<g>
	<g>
		<path d="M452.676,230.881c-13.851,0-25.119,11.268-25.119,25.119s11.268,25.119,25.119,25.119
			c13.851,0,25.119-11.268,25.119-25.119S466.527,230.881,452.676,230.881z M452.676,265.086c-5.01,0-9.086-4.076-9.086-9.086
			s4.076-9.086,9.086-9.086c5.01,0,9.086,4.076,9.086,9.086S457.686,265.086,452.676,265.086z"/>
	</g>
</g>
<g>
	<g>
		<path d="M392.818,230.881c-13.851,0-25.119,11.268-25.119,25.119s11.268,25.119,25.119,25.119
			c13.851,0,25.119-11.268,25.119-25.119S406.669,230.881,392.818,230.881z M392.818,265.086c-5.01,0-9.086-4.076-9.086-9.086
			s4.076-9.086,9.086-9.086c5.01,0,9.086,4.076,9.086,9.086S397.828,265.086,392.818,265.086z"/>
	</g>
</g>
<g>
	<g>
		<path d="M341.511,419.006H170.489c-4.428,0-8.017,3.589-8.017,8.017c0,4.427,3.588,8.017,8.017,8.017h171.023
			c4.428,0,8.017-3.589,8.017-8.017C349.528,422.596,345.94,419.006,341.511,419.006z"/>
	</g>
</g>
<g>
	<g>
		<path d="M298.756,453.211H170.489c-4.428,0-8.017,3.589-8.017,8.017c0,4.427,3.588,8.017,8.017,8.017h128.267
			c4.428,0,8.017-3.589,8.017-8.017C306.772,456.8,303.184,453.211,298.756,453.211z"/>
	</g>
</g>
<g>
	<g>
		<path d="M221.795,230.881H102.079c-4.428,0-8.017,3.589-8.017,8.017s3.588,8.017,8.017,8.017h119.716
			c4.428,0,8.017-3.589,8.017-8.017S226.224,230.881,221.795,230.881z"/>
	</g>
</g>
<g>
	<g>
		<path d="M264.551,230.881h-17.102c-4.428,0-8.017,3.589-8.017,8.017s3.588,8.017,8.017,8.017h17.102
			c4.428,0,8.017-3.589,8.017-8.017S268.98,230.881,264.551,230.881z"/>
	</g>
</g>
<g>
	<g>
		<path d="M76.426,230.881H59.324c-4.428,0-8.017,3.589-8.017,8.017s3.588,8.017,8.017,8.017h17.102
			c4.428,0,8.017-3.589,8.017-8.017S80.854,230.881,76.426,230.881z"/>
	</g>
</g>
<g>
	<g>
		<path d="M264.551,265.086H59.324c-4.428,0-8.017,3.589-8.017,8.017s3.588,8.017,8.017,8.017h205.228
			c4.428,0,8.017-3.589,8.017-8.017S268.98,265.086,264.551,265.086z"/>
	</g>
</g>
</svg>