<?xml version="1.0" encoding="iso-8859-1"?>
<svg fill="#000000" height="800px" width="800px" version="1.1" id="Layer_1" xmlns="http://www.w3.org/2000/svg" xmlns:xlink="http://www.w3.org/1999/xlink" 
	 viewBox="0 0 512.001 512.001" xml:space="preserve">
<g>
	<g>
		<path d="M418.502,59.797c-4.424,0-7.809,3.585-7.809,8.008c0,4.424,3.451,8.008,7.875,8.008c5.005,0,8.809,4.071,8.809,9.076
			v401.484c0,5.005-3.538,9.61-8.542,9.61H94.231c-5.005,0-9.61-4.605-9.61-9.61V84.89c0-5.005,4.272-9.076,9.277-9.076
			c4.424,0,8.209-3.585,8.209-8.008c0-4.424-3.719-8.008-8.142-8.008c-13.836,0-25.36,11.257-25.36,25.093v401.484
			c0,13.836,11.79,25.627,25.627,25.627h324.604c13.836,0,24.559-11.79,24.559-25.627V84.89
			C443.395,71.054,432.338,59.797,418.502,59.797z"/>
	</g>
</g>
<g>
	<g>
		<path d="M179.12,290.971h-51.253c-9.14,0-16.551,7.41-16.551,16.551v51.253c0,9.14,7.41,16.551,16.551,16.551h51.253
			c9.14,0,16.551-7.41,16.551-16.551v-51.253C195.671,298.381,188.261,290.971,179.12,290.971z M179.654,358.775
			c0,0.295-0.239,0.534-0.534,0.534h-51.253c-0.295,0-0.534-0.239-0.534-0.534v-51.253c0-0.295,0.239-0.534,0.534-0.534h51.253
			c0.295,0,0.534,0.239,0.534,0.534V358.775z"/>
	</g>
</g>
<g>
	<g>
		<path d="M281.627,290.971h-51.253c-9.14,0-16.551,7.41-16.551,16.551v51.253c0,9.14,7.41,16.551,16.551,16.551h51.253
			c9.14,0,16.551-7.41,16.551-16.551v-51.253C298.177,298.381,290.767,290.971,281.627,290.971z M282.161,358.775
			c0,0.295-0.239,0.534-0.534,0.534h-51.253c-0.295,0-0.534-0.239-0.534-0.534v-51.253c0-0.295,0.239-0.534,0.534-0.534h51.253
			c0.295,0,0.534,0.239,0.534,0.534V358.775z"/>
	</g>
</g>
<g>
	<g>
		<path d="M179.12,393.477h-51.253c-9.14,0-16.551,7.41-16.551,16.551v51.253c0,9.14,7.41,16.551,16.551,16.551h51.253
			c9.14,0,16.551-7.41,16.551-16.551v-51.253C195.671,400.888,188.261,393.477,179.12,393.477z M179.654,461.281
			c0,0.295-0.239,0.534-0.534,0.534h-51.253c-0.295,0-0.534-0.239-0.534-0.534v-51.253c0-0.295,0.239-0.534,0.534-0.534h51.253
			c0.295,0,0.534,0.239,0.534,0.534V461.281z"/>
	</g>
</g>
<g>
	<g>
		<path d="M281.627,393.477h-51.253c-9.14,0-16.551,7.41-16.551,16.551v51.253c0,9.14,7.41,16.551,16.551,16.551h51.253
			c9.14,0,16.551-7.41,16.551-16.551v-51.253C298.177,400.888,290.767,393.477,281.627,393.477z M282.161,461.281
			c0,0.295-0.239,0.534-0.534,0.534h-51.253c-0.295,0-0.534-0.239-0.534-0.534v-51.253c0-0.295,0.239-0.534,0.534-0.534h51.253
			c0.295,0,0.534,0.239,0.534,0.534V461.281z"/>
	</g>
</g>
<g>
	<g>
		<path d="M384.134,290.971H332.88c-9.14,0-16.551,7.41-16.551,16.551v153.76c0,9.14,7.41,16.551,16.551,16.551h51.253
			c9.14,0,16.551-7.41,16.551-16.551v-153.76C400.684,298.381,393.274,290.971,384.134,290.971z M384.667,461.281
			c0,0.295-0.239,0.534-0.534,0.534H332.88c-0.295,0-0.534-0.239-0.534-0.534v-153.76c0-0.295,0.239-0.534,0.534-0.534h51.253
			c0.295,0,0.534,0.239,0.534,0.534V461.281z"/>
	</g>
</g>
<g>
	<g>
		<path d="M162.57,325.14h-1.068v-1.068c0-4.424-3.586-8.008-8.008-8.008s-8.008,3.585-8.008,8.008v1.068
			c-4.423,0-8.008,3.584-8.008,8.008s3.586,8.008,8.008,8.008c0,4.424,3.586,8.008,8.008,8.008s8.008-3.585,8.008-8.008h1.068
			c4.423,0,8.008-3.584,8.008-8.008S166.993,325.14,162.57,325.14z"/>
	</g>
</g>
<g>
	<g>
		<path d="M265.076,325.14h-17.084c-4.423,0-8.008,3.584-8.008,8.008s3.586,8.008,8.008,8.008h17.084
			c4.424,0,8.008-3.584,8.008-8.008S269.5,325.14,265.076,325.14z"/>
	</g>
</g>
<g>
	<g>
		<path d="M270.739,420.915c-3.128-3.126-8.197-3.126-11.325,0l-17.084,17.084c-3.128,3.129-3.128,8.198,0,11.326
			c1.563,1.563,3.613,2.345,5.662,2.345c2.049,0,4.099-0.782,5.662-2.345l17.084-17.084
			C273.866,429.112,273.866,424.042,270.739,420.915z"/>
	</g>
</g>
<g>
	<g>
		<path d="M165.355,435.12l2.879-2.879c3.128-3.128,3.128-8.197,0-11.326c-3.128-3.126-8.198-3.126-11.325,0l-2.88,2.88l-2.88-2.88
			c-3.128-3.126-8.198-3.126-11.325,0c-3.128,3.129-3.128,8.198,0,11.326l2.879,2.879l-2.879,2.879
			c-3.128,3.129-3.128,8.198,0,11.326c1.563,1.563,3.613,2.345,5.662,2.345c2.049,0,4.099-0.782,5.662-2.345l2.88-2.88l2.88,2.88
			c1.563,1.563,3.613,2.345,5.662,2.345c2.049,0,4.099-0.782,5.662-2.345c3.128-3.129,3.128-8.198,0-11.326L165.355,435.12z"/>
	</g>
</g>
<g>
	<g>
		<path d="M367.583,359.308h-17.084c-4.424,0-8.008,3.585-8.008,8.008c0,4.424,3.585,8.008,8.008,8.008h17.084
			c4.424,0,8.008-3.585,8.008-8.008C375.591,362.893,372.007,359.308,367.583,359.308z"/>
	</g>
</g>
<g>
	<g>
		<path d="M367.583,384.935h-17.084c-4.424,0-8.008,3.585-8.008,8.008c0,4.424,3.585,8.008,8.008,8.008h17.084
			c4.424,0,8.008-3.585,8.008-8.008C375.591,388.52,372.007,384.935,367.583,384.935z"/>
	</g>
</g>
<g>
	<g>
		<path d="M392.676,127.067c4.424,0,8.008-3.585,8.008-8.008V8.01c0-2.953-1.358-5.668-3.963-7.06
			c-2.603-1.395-5.628-1.243-8.087,0.397l-46.315,30.92L304.216,1.756c-2.926-2.339-7.063-2.339-9.989,0l-37.7,30.167L218.822,1.756
			c-2.925-2.339-7.078-2.339-10.003,0l-38.138,30.511L124.301,1.346c-2.458-1.639-5.885-1.793-8.488-0.397
			c-2.603,1.393-4.496,4.108-4.496,7.06v256.266c0,4.424,4.12,8.542,8.542,8.542H393.21c4.424,0,7.474-4.118,7.474-8.542V153.227
			c0-4.424-3.585-8.008-8.008-8.008c-4.424,0-8.008,3.584-8.008,8.008v103.574H127.333V22.973l39.07,25.869
			c2.902,1.936,6.856,1.769,9.578-0.41l37.775-30.167l37.742,30.167c2.926,2.339,7.098,2.339,10.022,0l37.716-30.167l37.712,30.167
			c2.724,2.179,6.28,2.346,9.181,0.41l38.538-25.869v96.085C384.667,123.481,388.253,127.067,392.676,127.067z"/>
	</g>
</g>
<g>
	<g>
		<path d="M273.619,145.753h-9.61v-43.779h26.694c4.424,0,8.008-3.585,8.008-8.008c0-4.424-3.585-8.008-8.008-8.008h-26.694v-9.61
			c0-4.424-3.585-8.008-8.008-8.008c-4.423,0-8.008,3.585-8.008,8.008v9.61h-8.542c-13.836,0-25.627,10.723-25.627,24.559v25.627
			c0,13.836,11.79,25.627,25.627,25.627h8.542v43.779h-25.627c-4.423,0-8.008,3.585-8.008,8.008c0,4.424,3.586,8.008,8.008,8.008
			h25.627v8.542c0,4.424,3.586,8.008,8.008,8.008c4.424,0,8.008-3.585,8.008-8.008v-8.542h9.61c13.836,0,24.559-11.79,24.559-25.627
			v-25.627C298.177,156.476,287.455,145.753,273.619,145.753z M247.992,145.753h-8.542c-5.005,0-9.61-4.605-9.61-9.61v-25.627
			c0-5.005,4.605-8.542,9.61-8.542h8.542V145.753z M282.161,195.939c0,5.005-3.538,9.61-8.542,9.61h-9.61V161.77h9.61
			c5.005,0,8.542,3.538,8.542,8.542V195.939z"/>
	</g>
</g>
</svg>